<?xml version="1.0" encoding="utf-8"?>
<!-- Generator: Adobe Illustrator 16.0.0, SVG Export Plug-In . SVG Version: 6.00 Build 0)  -->
<!DOCTYPE svg PUBLIC "-//W3C//DTD SVG 1.1//EN" "http://www.w3.org/Graphics/SVG/1.1/DTD/svg11.dtd">
<svg version="1.1" id="Layer_1" xmlns="http://www.w3.org/2000/svg" xmlns:xlink="http://www.w3.org/1999/xlink" x="0px" y="0px"
	 width="210px" height="34px" viewBox="0 0 210 34" enable-background="new 0 0 210 34" xml:space="preserve">
<g>
	<g>
		<path fill="#FFFFFF" d="M20,29.258C20,31.322,21.674,33,23.741,33h6.122L20,15.617V29.258z"/>
		<path fill="#FFFFFF" d="M39.083,33h8.356c2.066,0,3.741-1.678,3.741-3.742V5.562c0-0.048-0.005-0.097-0.007-0.144L39.083,33z"/>
		<path fill="#FFFFFF" d="M23.741,1.82C21.674,1.82,20,3.494,20,5.562v2.774L37.579,1.82H23.741z"/>
		<path fill="#FFFFFF" d="M33.284,24.393c1,1.637,1.572,0.313,1.572,0.313s5.535-12.004,5.847-13.25
			c0.312-1.248-0.857-1.092-0.857-1.092L20,10.772v4.501h7.919L33.284,24.393z"/>
	</g>
	<g>
		<path fill="#FFFFFF" d="M56.258,13.612h2.679l1.997,6.224l2.014-6.224h2.629l-3.512,9.361h-2.296L56.258,13.612z"/>
		<path fill="#FFFFFF" d="M66.759,10.249h2.663v2.341h-2.663V10.249z M66.825,13.612h2.53v9.292h-2.53V13.612z"/>
		<path fill="#FFFFFF" d="M75.628,23.112c-0.666,0-1.285-0.115-1.856-0.347s-1.065-0.561-1.481-0.988s-0.741-0.933-0.974-1.517
			s-0.35-1.233-0.35-1.95v-0.035c0-0.658,0.108-1.282,0.325-1.872c0.216-0.589,0.519-1.104,0.907-1.543
			c0.388-0.438,0.851-0.785,1.389-1.04c0.538-0.254,1.134-0.381,1.789-0.381c0.743,0,1.387,0.139,1.931,0.416
			c0.543,0.277,0.996,0.649,1.356,1.118c0.36,0.468,0.626,1.005,0.799,1.612c0.172,0.606,0.258,1.239,0.258,1.897
			c0,0.104-0.003,0.214-0.008,0.33c-0.006,0.115-0.014,0.236-0.025,0.363h-6.208c0.122,0.602,0.375,1.055,0.757,1.361
			s0.857,0.459,1.423,0.459c0.421,0,0.799-0.075,1.131-0.225c0.333-0.15,0.677-0.394,1.032-0.729l1.448,1.335
			c-0.422,0.543-0.932,0.968-1.531,1.274C77.143,22.959,76.438,23.112,75.628,23.112z M77.259,17.53
			c-0.078-0.59-0.278-1.066-0.599-1.431c-0.322-0.363-0.749-0.546-1.282-0.546c-0.532,0-0.962,0.18-1.29,0.538
			c-0.328,0.358-0.541,0.838-0.641,1.438H77.259z"/>
		<path fill="#FFFFFF" d="M84.282,23.061c-0.389,0-0.741-0.044-1.057-0.13c-0.316-0.087-0.588-0.24-0.815-0.46
			c-0.228-0.219-0.405-0.505-0.532-0.857c-0.128-0.353-0.191-0.801-0.191-1.344v-4.403h-1.065v-2.254h1.065v-2.375h2.529v2.375
			h2.097v2.254h-2.097v3.983c0,0.604,0.272,0.905,0.815,0.905c0.444,0,0.86-0.115,1.248-0.347v2.114
			c-0.266,0.162-0.56,0.292-0.882,0.391C85.075,23.011,84.704,23.061,84.282,23.061z"/>
		<path fill="#FFFFFF" d="M87.843,13.612h2.529v1.328c0.144-0.197,0.302-0.387,0.474-0.567c0.172-0.18,0.363-0.34,0.574-0.479
			s0.444-0.251,0.699-0.332c0.255-0.081,0.543-0.122,0.865-0.122c0.965,0,1.711,0.306,2.238,0.918
			c0.527,0.613,0.791,1.457,0.791,2.531v6.016h-2.529v-5.171c0-0.622-0.133-1.092-0.399-1.409c-0.267-0.316-0.644-0.476-1.132-0.476
			s-0.874,0.159-1.157,0.476c-0.283,0.317-0.424,0.787-0.424,1.409v5.171h-2.529V13.612z"/>
		<path fill="#FFFFFF" d="M100.407,23.078c-0.422,0-0.818-0.062-1.19-0.183s-0.696-0.304-0.974-0.546
			c-0.277-0.243-0.497-0.54-0.657-0.893s-0.241-0.76-0.241-1.223V20.2c0-0.509,0.089-0.947,0.266-1.317s0.424-0.677,0.741-0.919
			c0.316-0.243,0.693-0.425,1.132-0.546c0.438-0.122,0.923-0.183,1.456-0.183c0.455,0,0.851,0.035,1.19,0.104
			c0.338,0.069,0.668,0.162,0.99,0.277v-0.156c0-0.555-0.161-0.977-0.483-1.266s-0.799-0.434-1.431-0.434
			c-0.488,0-0.918,0.044-1.29,0.13c-0.372,0.087-0.763,0.212-1.173,0.373l-0.632-2.011c0.488-0.22,0.999-0.398,1.531-0.537
			c0.533-0.139,1.176-0.208,1.931-0.208c0.699,0,1.295,0.089,1.789,0.269c0.494,0.179,0.901,0.437,1.223,0.771
			c0.333,0.347,0.577,0.771,0.732,1.273c0.155,0.503,0.233,1.066,0.233,1.69v5.392h-2.446v-1.006
			c-0.311,0.358-0.683,0.645-1.115,0.858S101.028,23.078,100.407,23.078z M101.173,21.258c0.599,0,1.079-0.15,1.439-0.451
			c0.36-0.301,0.541-0.693,0.541-1.179V19.16c-0.222-0.104-0.469-0.188-0.741-0.252s-0.563-0.095-0.874-0.095
			c-0.544,0-0.971,0.109-1.282,0.329s-0.466,0.537-0.466,0.953v0.035c0,0.358,0.127,0.636,0.383,0.832
			C100.429,21.159,100.762,21.258,101.173,21.258z"/>
		<path fill="#FFFFFF" d="M107.397,13.612h2.529v1.328c0.144-0.197,0.302-0.387,0.474-0.567c0.173-0.18,0.363-0.34,0.574-0.479
			s0.447-0.251,0.708-0.332c0.26-0.081,0.552-0.122,0.873-0.122c0.588,0,1.096,0.128,1.523,0.384c0.427,0.256,0.757,0.623,0.99,1.1
			c0.388-0.488,0.82-0.858,1.298-1.108c0.477-0.25,1.021-0.375,1.631-0.375c0.942,0,1.681,0.289,2.213,0.866
			c0.533,0.578,0.799,1.428,0.799,2.549v6.05h-2.529v-5.171c0-0.622-0.128-1.092-0.383-1.409c-0.255-0.316-0.621-0.476-1.099-0.476
			c-0.477,0-0.852,0.159-1.123,0.476c-0.271,0.317-0.407,0.787-0.407,1.409v5.171h-2.53v-5.171c0-0.622-0.127-1.092-0.383-1.409
			c-0.255-0.316-0.621-0.476-1.098-0.476c-0.478,0-0.852,0.159-1.124,0.476c-0.271,0.317-0.407,0.787-0.407,1.409v5.171h-2.529
			V13.612z"/>
		<path fill="#FFFFFF" d="M122.924,10.249h2.663v2.341h-2.663V10.249z M122.99,13.612h2.53v9.292h-2.53V13.612z"/>
		<path fill="#FFFFFF" d="M126.769,13.612h2.679l1.997,6.224l2.014-6.224h2.63l-3.512,9.361h-2.297L126.769,13.612z"/>
		<path fill="#FFFFFF" d="M137.269,10.249h2.663v2.341h-2.663V10.249z M137.335,13.612h2.53v9.292h-2.53V13.612z"/>
		<path fill="#FFFFFF" d="M145.04,23.078c-0.632,0-1.278-0.113-1.938-0.339c-0.66-0.225-1.29-0.58-1.889-1.065l1.082-1.734
			c0.487,0.37,0.973,0.647,1.456,0.833c0.482,0.185,0.935,0.277,1.355,0.277c0.366,0,0.636-0.063,0.808-0.191
			c0.172-0.127,0.258-0.294,0.258-0.502v-0.035c0-0.139-0.05-0.26-0.149-0.364c-0.101-0.104-0.236-0.193-0.408-0.269
			s-0.369-0.147-0.591-0.217s-0.455-0.145-0.698-0.226c-0.312-0.092-0.625-0.205-0.94-0.338c-0.316-0.133-0.603-0.306-0.857-0.52
			s-0.463-0.477-0.624-0.789s-0.241-0.693-0.241-1.145v-0.034c0-0.474,0.086-0.893,0.258-1.257s0.405-0.673,0.699-0.928
			c0.294-0.254,0.638-0.444,1.031-0.572c0.394-0.127,0.818-0.19,1.273-0.19c0.565,0,1.14,0.096,1.723,0.286
			c0.582,0.19,1.117,0.454,1.605,0.789l-0.965,1.82c-0.444-0.266-0.877-0.478-1.298-0.633c-0.422-0.156-0.794-0.234-1.115-0.234
			c-0.311,0-0.544,0.061-0.699,0.182c-0.155,0.122-0.232,0.275-0.232,0.46v0.034c0,0.128,0.05,0.24,0.149,0.339
			c0.1,0.098,0.233,0.19,0.399,0.277c0.166,0.086,0.357,0.17,0.574,0.251c0.216,0.081,0.446,0.162,0.69,0.242
			c0.311,0.104,0.627,0.229,0.948,0.373c0.322,0.145,0.61,0.321,0.866,0.529c0.255,0.208,0.466,0.462,0.632,0.763
			c0.167,0.301,0.25,0.664,0.25,1.092v0.034c0,0.521-0.086,0.969-0.258,1.344c-0.173,0.376-0.414,0.685-0.725,0.928
			c-0.311,0.242-0.674,0.425-1.09,0.546S145.518,23.078,145.04,23.078z"/>
		<path fill="#FFFFFF" d="M152.463,23.078c-0.422,0-0.818-0.062-1.19-0.183c-0.371-0.121-0.696-0.304-0.974-0.546
			c-0.277-0.243-0.496-0.54-0.657-0.893c-0.16-0.353-0.241-0.76-0.241-1.223V20.2c0-0.509,0.089-0.947,0.267-1.317
			c0.177-0.37,0.424-0.677,0.74-0.919c0.316-0.243,0.693-0.425,1.132-0.546c0.438-0.122,0.924-0.183,1.456-0.183
			c0.455,0,0.852,0.035,1.19,0.104c0.338,0.069,0.668,0.162,0.99,0.277v-0.156c0-0.555-0.161-0.977-0.483-1.266
			c-0.321-0.289-0.799-0.434-1.431-0.434c-0.488,0-0.918,0.044-1.29,0.13c-0.372,0.087-0.763,0.212-1.173,0.373l-0.633-2.011
			c0.488-0.22,0.999-0.398,1.531-0.537s1.176-0.208,1.931-0.208c0.698,0,1.295,0.089,1.789,0.269
			c0.493,0.179,0.901,0.437,1.223,0.771c0.333,0.347,0.577,0.771,0.732,1.273c0.155,0.503,0.233,1.066,0.233,1.69v5.392h-2.446
			v-1.006c-0.312,0.358-0.683,0.645-1.115,0.858S153.084,23.078,152.463,23.078z M153.229,21.258c0.599,0,1.078-0.15,1.439-0.451
			c0.36-0.301,0.541-0.693,0.541-1.179V19.16c-0.223-0.104-0.469-0.188-0.741-0.252c-0.271-0.063-0.563-0.095-0.873-0.095
			c-0.544,0-0.972,0.109-1.282,0.329s-0.466,0.537-0.466,0.953v0.035c0,0.358,0.128,0.636,0.383,0.832
			S152.817,21.258,153.229,21.258z"/>
		<path fill="#FFFFFF" d="M159.353,20.131h2.679v2.773h-2.679V20.131z"/>
		<path fill="#FFFFFF" d="M168.256,23.112c-0.688,0-1.326-0.124-1.914-0.373c-0.588-0.248-1.096-0.589-1.522-1.022
			c-0.428-0.434-0.763-0.941-1.007-1.525s-0.366-1.211-0.366-1.881v-0.035c0-0.67,0.122-1.297,0.366-1.881
			c0.244-0.583,0.582-1.095,1.015-1.534c0.433-0.438,0.943-0.785,1.531-1.04c0.588-0.254,1.231-0.381,1.931-0.381
			c0.688,0,1.325,0.124,1.914,0.372c0.588,0.249,1.096,0.59,1.522,1.023c0.427,0.433,0.763,0.941,1.007,1.525
			c0.244,0.583,0.366,1.211,0.366,1.881v0.034c0,0.671-0.122,1.298-0.366,1.881c-0.244,0.584-0.582,1.096-1.016,1.534
			c-0.433,0.439-0.942,0.786-1.53,1.04C169.598,22.985,168.955,23.112,168.256,23.112z M168.289,20.842
			c0.366,0,0.69-0.066,0.974-0.2c0.283-0.132,0.524-0.314,0.724-0.546c0.2-0.23,0.353-0.5,0.458-0.806
			c0.105-0.307,0.158-0.633,0.158-0.979v-0.035c0-0.347-0.056-0.673-0.167-0.979c-0.11-0.306-0.271-0.577-0.482-0.814
			c-0.211-0.236-0.46-0.425-0.749-0.563c-0.288-0.139-0.604-0.208-0.948-0.208c-0.366,0-0.69,0.066-0.974,0.199
			s-0.524,0.315-0.724,0.546c-0.2,0.231-0.353,0.5-0.458,0.807s-0.158,0.633-0.158,0.979v0.034c0,0.347,0.056,0.674,0.167,0.979
			c0.11,0.307,0.271,0.578,0.482,0.815c0.21,0.236,0.457,0.425,0.74,0.563S167.934,20.842,168.289,20.842z"/>
		<path fill="#FFFFFF" d="M174.596,13.612h2.529v1.872c0.256-0.635,0.604-1.144,1.049-1.525c0.443-0.381,1.043-0.555,1.797-0.52
			v2.756h-0.133c-0.843,0-1.506,0.267-1.988,0.798c-0.483,0.531-0.725,1.357-0.725,2.479v3.433h-2.529V13.612z"/>
		<path fill="#FFFFFF" d="M185.213,25.713c-0.731,0-1.431-0.084-2.097-0.252c-0.665-0.167-1.281-0.407-1.847-0.719l0.865-1.977
			c0.466,0.266,0.935,0.474,1.406,0.624s1.007,0.226,1.605,0.226c0.865,0,1.507-0.214,1.923-0.642s0.624-1.058,0.624-1.89v-0.45
			c-0.378,0.474-0.788,0.844-1.231,1.109c-0.444,0.266-1.005,0.398-1.682,0.398c-0.521,0-1.021-0.096-1.497-0.286
			c-0.478-0.19-0.899-0.471-1.265-0.841c-0.366-0.37-0.658-0.823-0.874-1.36c-0.217-0.538-0.324-1.153-0.324-1.847v-0.034
			c0-0.694,0.11-1.31,0.332-1.847c0.223-0.537,0.517-0.991,0.883-1.361c0.365-0.369,0.787-0.649,1.265-0.84
			c0.477-0.191,0.971-0.286,1.48-0.286c0.688,0,1.254,0.133,1.698,0.398c0.443,0.266,0.837,0.596,1.182,0.988v-1.214h2.529v7.194
			c0,1.653-0.378,2.872-1.132,3.658c-0.422,0.438-0.951,0.757-1.589,0.953C186.83,25.614,186.079,25.713,185.213,25.713z
			 M185.513,19.957c0.311,0,0.6-0.052,0.865-0.156c0.267-0.104,0.497-0.251,0.691-0.441c0.193-0.19,0.346-0.419,0.457-0.685
			s0.167-0.555,0.167-0.867v-0.034c0-0.313-0.056-0.602-0.167-0.867s-0.264-0.494-0.457-0.685c-0.194-0.191-0.425-0.338-0.691-0.442
			c-0.266-0.104-0.555-0.156-0.865-0.156s-0.597,0.053-0.856,0.156c-0.261,0.104-0.488,0.251-0.683,0.442
			c-0.194,0.19-0.347,0.419-0.458,0.685c-0.11,0.266-0.166,0.555-0.166,0.867v0.034c0,0.647,0.205,1.167,0.615,1.561
			C184.376,19.761,184.892,19.957,185.513,19.957z"/>
	</g>
</g>
</svg>
