<?xml version="1.0" encoding="utf-8"?>
<!-- Generator: Adobe Illustrator 16.0.0, SVG Export Plug-In . SVG Version: 6.00 Build 0)  -->
<!DOCTYPE svg PUBLIC "-//W3C//DTD SVG 1.1//EN" "http://www.w3.org/Graphics/SVG/1.1/DTD/svg11.dtd">
<svg version="1.1" id="Layer_1" xmlns="http://www.w3.org/2000/svg" xmlns:xlink="http://www.w3.org/1999/xlink" x="0px" y="0px"
	 width="295.5px" height="50px" viewBox="0 0 295.5 50" enable-background="new 0 0 295.5 50" xml:space="preserve">
<g>
	<path fill="#CF2027" d="M0,44.018c0,3.305,2.678,5.984,5.983,5.984h9.789L0,22.207V44.018z"/>
	<path fill="#CF2027" d="M30.515,50.002h13.362c3.305,0,5.983-2.68,5.983-5.984V6.123c0-0.076-0.008-0.152-0.012-0.229
		L30.515,50.002z"/>
	<path fill="#CF2027" d="M5.983,0.143C2.678,0.143,0,2.82,0,6.123v4.439l28.11-10.42H5.983z"/>
	<path fill="#CF2027" d="M21.242,36.24c1.597,2.617,2.515,0.498,2.515,0.498s8.851-19.197,9.349-21.189
		c0.499-1.994-1.371-1.746-1.371-1.746L0,14.459v7.196h12.663L21.242,36.24z"/>
	<path fill="#FFFFFF" d="M43.877,0.143H28.11L0,10.563v3.896l31.735-0.656c0,0,1.87-0.248,1.371,1.746
		c-0.499,1.992-9.349,21.189-9.349,21.189s-0.917,2.119-2.515-0.498l-8.579-14.585H0v0.552l15.772,27.795h14.743L49.848,5.895
		C49.727,2.698,47.104,0.143,43.877,0.143z"/>
</g>
<g>
	<path fill="#CF2027" d="M61.889,6.114h4.669l3.48,10.411l3.509-10.411h4.582l-6.119,15.66h-4.002L61.889,6.114z"/>
	<path fill="#CF2027" d="M80.188,0.488h4.64v3.915h-4.64V0.488z M80.303,6.114h4.408v15.544h-4.408V6.114z"/>
	<path fill="#CF2027" d="M95.644,22.005c-1.16,0-2.238-0.193-3.233-0.58c-0.996-0.386-1.856-0.938-2.581-1.652
		s-1.291-1.562-1.696-2.538c-0.406-0.976-0.609-2.063-0.609-3.262v-0.059c0-1.102,0.189-2.146,0.566-3.132s0.903-1.846,1.58-2.581
		c0.677-0.734,1.484-1.314,2.422-1.74c0.938-0.425,1.977-0.638,3.117-0.638c1.295,0,2.417,0.232,3.364,0.696
		c0.947,0.464,1.735,1.087,2.363,1.87c0.628,0.783,1.092,1.682,1.392,2.697c0.299,1.015,0.45,2.073,0.45,3.176
		c0,0.174-0.005,0.357-0.015,0.551c-0.01,0.193-0.024,0.396-0.043,0.608H91.903c0.212,1.006,0.652,1.765,1.319,2.276
		c0.667,0.513,1.494,0.769,2.479,0.769c0.734,0,1.392-0.125,1.972-0.377c0.58-0.251,1.179-0.656,1.798-1.218l2.523,2.233
		c-0.735,0.909-1.624,1.619-2.668,2.131C98.283,21.75,97.055,22.005,95.644,22.005z M98.486,12.667
		c-0.136-0.985-0.484-1.783-1.044-2.393c-0.561-0.608-1.305-0.913-2.233-0.913c-0.928,0-1.677,0.3-2.248,0.898
		c-0.57,0.6-0.942,1.402-1.116,2.407H98.486z"/>
	<path fill="#CF2027" d="M110.724,21.918c-0.677,0-1.291-0.072-1.842-0.217c-0.551-0.146-1.025-0.401-1.421-0.769
		c-0.396-0.367-0.706-0.846-0.928-1.436s-0.333-1.339-0.333-2.248V9.883h-1.856v-3.77h1.856V2.141h4.408v3.973h3.654v3.77h-3.654
		v6.665c0,1.009,0.474,1.514,1.421,1.514c0.773,0,1.498-0.193,2.175-0.58v3.538c-0.464,0.271-0.977,0.488-1.537,0.652
		C112.106,21.836,111.458,21.918,110.724,21.918z"/>
	<path fill="#CF2027" d="M116.93,6.114h4.408v2.222c0.251-0.33,0.527-0.647,0.827-0.949c0.299-0.302,0.633-0.568,1-0.803
		c0.367-0.233,0.773-0.419,1.218-0.555c0.445-0.137,0.947-0.205,1.508-0.205c1.682,0,2.982,0.513,3.9,1.537
		c0.918,1.024,1.377,2.436,1.377,4.233v10.063h-4.408v-8.649c0-1.042-0.232-1.828-0.696-2.357c-0.464-0.53-1.122-0.796-1.972-0.796
		s-1.522,0.266-2.015,0.796c-0.493,0.529-0.74,1.315-0.74,2.357v8.649h-4.408V6.114z"/>
	<path fill="#CF2027" d="M138.824,21.948c-0.735,0-1.426-0.102-2.073-0.305c-0.648-0.203-1.213-0.508-1.697-0.913
		c-0.483-0.406-0.865-0.903-1.146-1.494c-0.28-0.589-0.42-1.271-0.42-2.044v-0.059c0-0.851,0.155-1.585,0.464-2.203
		c0.309-0.619,0.74-1.132,1.291-1.537c0.551-0.406,1.208-0.711,1.972-0.914c0.764-0.203,1.609-0.305,2.538-0.305
		c0.792,0,1.483,0.059,2.073,0.175c0.59,0.115,1.165,0.271,1.726,0.464v-0.262c0-0.928-0.28-1.633-0.841-2.116
		c-0.561-0.483-1.392-0.726-2.494-0.726c-0.851,0-1.6,0.072-2.248,0.218c-0.648,0.145-1.33,0.353-2.044,0.623l-1.102-3.363
		c0.851-0.367,1.74-0.667,2.668-0.899c0.928-0.231,2.049-0.348,3.364-0.348c1.218,0,2.257,0.149,3.117,0.449s1.571,0.73,2.132,1.291
		c0.58,0.579,1.005,1.29,1.276,2.131c0.271,0.841,0.406,1.783,0.406,2.828v9.019h-4.263v-1.682c-0.542,0.6-1.189,1.077-1.943,1.436
		C140.825,21.769,139.906,21.948,138.824,21.948z M140.158,18.903c1.044,0,1.88-0.251,2.509-0.754
		c0.628-0.503,0.942-1.16,0.942-1.973v-0.782c-0.387-0.175-0.817-0.314-1.291-0.421c-0.474-0.106-0.981-0.159-1.522-0.159
		c-0.948,0-1.692,0.184-2.233,0.551c-0.542,0.367-0.812,0.899-0.812,1.595v0.059c0,0.6,0.222,1.063,0.667,1.392
		C138.862,18.739,139.442,18.903,140.158,18.903z"/>
	<path fill="#CF2027" d="M151.004,6.114h4.408v2.222c0.251-0.33,0.527-0.647,0.827-0.949c0.299-0.302,0.633-0.568,1-0.803
		c0.367-0.233,0.778-0.419,1.232-0.555c0.454-0.137,0.961-0.205,1.522-0.205c1.024,0,1.909,0.214,2.654,0.643
		c0.744,0.429,1.319,1.042,1.725,1.84c0.677-0.817,1.431-1.436,2.262-1.854c0.831-0.419,1.778-0.628,2.842-0.628
		c1.643,0,2.929,0.483,3.857,1.45c0.928,0.967,1.392,2.388,1.392,4.263v10.121h-4.408v-8.649c0-1.042-0.223-1.828-0.667-2.357
		c-0.445-0.53-1.083-0.796-1.914-0.796c-0.832,0-1.484,0.266-1.958,0.796c-0.474,0.529-0.71,1.315-0.71,2.357v8.649h-4.408v-8.649
		c0-1.042-0.222-1.828-0.667-2.357c-0.445-0.53-1.083-0.796-1.914-0.796c-0.832,0-1.484,0.266-1.958,0.796
		c-0.474,0.529-0.71,1.315-0.71,2.357v8.649h-4.408V6.114z"/>
	<path fill="#CF2027" d="M178.061,0.488h4.64v3.915h-4.64V0.488z M178.177,6.114h4.408v15.544h-4.408V6.114z"/>
	<path fill="#CF2027" d="M184.76,6.114h4.669l3.479,10.411l3.51-10.411H201l-6.119,15.66h-4.002L184.76,6.114z"/>
	<path fill="#CF2027" d="M203.059,0.488h4.64v3.915h-4.64V0.488z M203.174,6.114h4.408v15.544h-4.408V6.114z"/>
	<path fill="#CF2027" d="M216.601,21.948c-1.103,0-2.229-0.188-3.378-0.565c-1.15-0.377-2.248-0.972-3.292-1.783l1.886-2.9
		c0.85,0.619,1.695,1.083,2.537,1.392c0.841,0.31,1.629,0.465,2.363,0.465c0.639,0,1.106-0.106,1.406-0.319s0.449-0.493,0.449-0.841
		v-0.059c0-0.231-0.086-0.435-0.261-0.608c-0.174-0.174-0.411-0.324-0.71-0.45c-0.301-0.125-0.643-0.246-1.029-0.362
		c-0.388-0.116-0.793-0.241-1.219-0.377c-0.541-0.154-1.088-0.343-1.639-0.565c-0.551-0.222-1.049-0.512-1.493-0.87
		c-0.444-0.357-0.808-0.797-1.087-1.319c-0.281-0.522-0.421-1.16-0.421-1.914v-0.058c0-0.793,0.149-1.494,0.449-2.103
		c0.3-0.609,0.706-1.126,1.218-1.552c0.512-0.425,1.111-0.744,1.799-0.957c0.686-0.213,1.426-0.319,2.219-0.319
		c0.985,0,1.986,0.16,3.001,0.479c1.015,0.319,1.947,0.76,2.798,1.32l-1.682,3.045c-0.773-0.445-1.527-0.798-2.262-1.059
		c-0.735-0.262-1.383-0.392-1.943-0.392c-0.541,0-0.947,0.102-1.218,0.305c-0.271,0.202-0.406,0.459-0.406,0.769v0.058
		c0,0.213,0.087,0.401,0.261,0.565s0.406,0.319,0.696,0.464c0.29,0.146,0.624,0.285,1.001,0.421
		c0.377,0.135,0.777,0.271,1.203,0.405c0.541,0.175,1.092,0.383,1.653,0.624c0.56,0.242,1.063,0.536,1.508,0.885
		c0.444,0.348,0.812,0.773,1.103,1.275c0.289,0.503,0.435,1.112,0.435,1.827v0.059c0,0.869-0.149,1.619-0.45,2.247
		c-0.299,0.629-0.72,1.146-1.261,1.552c-0.542,0.405-1.175,0.71-1.899,0.913S217.432,21.948,216.601,21.948z"/>
	<path fill="#CF2027" d="M229.535,21.948c-0.735,0-1.426-0.102-2.074-0.305c-0.647-0.203-1.213-0.508-1.696-0.913
		c-0.483-0.406-0.865-0.903-1.146-1.494c-0.28-0.589-0.42-1.271-0.42-2.044v-0.059c0-0.851,0.154-1.585,0.463-2.203
		c0.31-0.619,0.74-1.132,1.291-1.537c0.551-0.406,1.208-0.711,1.973-0.914c0.764-0.203,1.609-0.305,2.537-0.305
		c0.793,0,1.483,0.059,2.073,0.175c0.59,0.115,1.165,0.271,1.726,0.464v-0.262c0-0.928-0.28-1.633-0.841-2.116
		c-0.562-0.483-1.392-0.726-2.494-0.726c-0.851,0-1.601,0.072-2.247,0.218c-0.648,0.145-1.33,0.353-2.045,0.623l-1.102-3.363
		c0.85-0.367,1.74-0.667,2.668-0.899c0.928-0.231,2.049-0.348,3.363-0.348c1.219,0,2.258,0.149,3.117,0.449
		c0.861,0.3,1.571,0.73,2.133,1.291c0.579,0.579,1.004,1.29,1.275,2.131c0.271,0.841,0.406,1.783,0.406,2.828v9.019h-4.264v-1.682
		c-0.541,0.6-1.188,1.077-1.943,1.436C231.535,21.769,230.617,21.948,229.535,21.948z M230.869,18.903
		c1.043,0,1.88-0.251,2.508-0.754c0.629-0.503,0.943-1.16,0.943-1.973v-0.782c-0.388-0.175-0.817-0.314-1.291-0.421
		c-0.475-0.106-0.981-0.159-1.522-0.159c-0.948,0-1.692,0.184-2.233,0.551s-0.812,0.899-0.812,1.595v0.059
		c0,0.6,0.222,1.063,0.667,1.392C229.573,18.739,230.153,18.903,230.869,18.903z"/>
	<path fill="#CF2027" d="M241.541,17.018h4.668v4.64h-4.668V17.018z"/>
	<path fill="#CF2027" d="M257.055,22.005c-1.197,0-2.311-0.208-3.334-0.623c-1.025-0.416-1.91-0.986-2.654-1.711
		c-0.744-0.726-1.328-1.576-1.754-2.552c-0.426-0.977-0.639-2.025-0.639-3.146v-0.059c0-1.121,0.213-2.17,0.639-3.146
		c0.426-0.976,1.016-1.831,1.77-2.566c0.754-0.734,1.643-1.314,2.668-1.74c1.023-0.425,2.146-0.638,3.363-0.638
		c1.199,0,2.311,0.208,3.336,0.623c1.023,0.416,1.908,0.986,2.652,1.712c0.744,0.725,1.33,1.575,1.756,2.552
		c0.424,0.977,0.637,2.025,0.637,3.146v0.058c0,1.122-0.213,2.171-0.637,3.146c-0.426,0.977-1.016,1.832-1.77,2.566
		c-0.754,0.735-1.645,1.315-2.668,1.74C259.395,21.792,258.273,22.005,257.055,22.005z M257.113,18.207
		c0.639,0,1.203-0.111,1.697-0.333c0.492-0.223,0.912-0.526,1.262-0.914c0.348-0.387,0.613-0.836,0.797-1.349
		c0.184-0.512,0.275-1.059,0.275-1.638v-0.059c0-0.58-0.098-1.126-0.289-1.639c-0.195-0.512-0.475-0.966-0.842-1.362
		s-0.803-0.711-1.305-0.942c-0.504-0.232-1.055-0.349-1.654-0.349c-0.637,0-1.203,0.111-1.695,0.334
		c-0.494,0.222-0.914,0.526-1.262,0.913s-0.613,0.837-0.797,1.349c-0.186,0.513-0.275,1.059-0.275,1.639v0.058
		c0,0.58,0.096,1.127,0.289,1.639c0.193,0.513,0.473,0.967,0.842,1.363c0.367,0.396,0.797,0.71,1.289,0.942
		C255.939,18.09,256.494,18.207,257.113,18.207z"/>
	<path fill="#CF2027" d="M268.104,6.114h4.408v3.132c0.445-1.063,1.055-1.914,1.828-2.552s1.816-0.928,3.131-0.87v4.611h-0.23
		c-1.471,0-2.625,0.444-3.467,1.334c-0.84,0.889-1.262,2.271-1.262,4.146v5.742h-4.408V6.114z"/>
	<path fill="#CF2027" d="M286.605,26.355c-1.275,0-2.492-0.141-3.652-0.42c-1.16-0.28-2.234-0.682-3.221-1.203l1.51-3.307
		c0.811,0.445,1.627,0.793,2.449,1.044c0.822,0.252,1.756,0.378,2.799,0.378c1.508,0,2.625-0.358,3.35-1.073s1.088-1.77,1.088-3.161
		v-0.754c-0.658,0.793-1.373,1.411-2.146,1.855c-0.773,0.445-1.75,0.667-2.93,0.667c-0.908,0-1.777-0.159-2.609-0.479
		c-0.832-0.318-1.566-0.787-2.203-1.406c-0.639-0.618-1.146-1.377-1.523-2.276s-0.564-1.929-0.564-3.089v-0.058
		c0-1.16,0.191-2.189,0.58-3.089c0.385-0.898,0.898-1.657,1.535-2.276c0.639-0.618,1.373-1.087,2.205-1.406
		c0.83-0.319,1.691-0.479,2.58-0.479c1.199,0,2.186,0.223,2.959,0.667c0.773,0.445,1.459,0.996,2.059,1.653v-2.03h4.408v12.035
		c0,2.765-0.658,4.804-1.973,6.119c-0.734,0.734-1.658,1.266-2.77,1.595C289.424,26.191,288.115,26.355,286.605,26.355z
		 M287.129,16.728c0.541,0,1.043-0.087,1.508-0.262c0.463-0.174,0.865-0.42,1.203-0.739c0.338-0.318,0.604-0.7,0.797-1.146
		c0.193-0.444,0.291-0.928,0.291-1.45v-0.058c0-0.522-0.098-1.005-0.291-1.45c-0.193-0.444-0.459-0.826-0.797-1.146
		c-0.338-0.318-0.74-0.565-1.203-0.739c-0.465-0.174-0.967-0.261-1.508-0.261c-0.543,0-1.041,0.087-1.494,0.261
		c-0.455,0.174-0.852,0.421-1.189,0.739c-0.338,0.319-0.604,0.701-0.797,1.146c-0.193,0.445-0.291,0.928-0.291,1.45v0.058
		c0,1.083,0.359,1.953,1.074,2.61S286.045,16.728,287.129,16.728z"/>
</g>
<g>
	<path fill="#464547" d="M69.822,49.906c-1.152,0-2.198-0.193-3.139-0.578c-0.941-0.387-1.745-0.92-2.412-1.602
		s-1.183-1.482-1.548-2.402s-0.548-1.92-0.548-3.002v-0.041c0-1.025,0.188-2.002,0.563-2.93c0.375-0.926,0.901-1.736,1.58-2.432
		s1.484-1.246,2.418-1.654s1.956-0.611,3.065-0.611c0.646,0,1.232,0.047,1.759,0.137c0.527,0.092,1.015,0.223,1.464,0.391
		c0.45,0.168,0.875,0.375,1.275,0.621c0.4,0.246,0.79,0.531,1.169,0.854l-1.643,1.959c-0.281-0.238-0.569-0.457-0.864-0.652
		c-0.295-0.197-0.604-0.361-0.927-0.496c-0.323-0.133-0.678-0.238-1.064-0.316c-0.386-0.076-0.811-0.115-1.274-0.115
		c-0.674,0-1.303,0.141-1.886,0.422c-0.583,0.281-1.088,0.658-1.517,1.129c-0.429,0.473-0.766,1.025-1.011,1.658
		s-0.369,1.301-0.369,2.006v0.041c0,0.76,0.119,1.465,0.357,2.111s0.578,1.203,1.019,1.668c0.441,0.463,0.967,0.83,1.576,1.098
		s1.292,0.4,2.049,0.4c0.701,0,1.355-0.102,1.965-0.307s1.138-0.477,1.586-0.816v-2.773h-3.771v-2.256h6.278v6.195
		c-0.366,0.309-0.769,0.604-1.211,0.885c-0.442,0.279-0.92,0.525-1.433,0.736s-1.064,0.375-1.654,0.496
		C71.086,49.848,70.468,49.906,69.822,49.906z"/>
	<path fill="#464547" d="M83.726,49.906c-0.801,0-1.548-0.141-2.244-0.422c-0.695-0.279-1.299-0.674-1.812-1.18
		c-0.513-0.504-0.917-1.111-1.211-1.822c-0.295-0.709-0.442-1.49-0.442-2.348v-0.043c0-0.801,0.133-1.551,0.4-2.254
		c0.267-0.701,0.643-1.316,1.127-1.844c0.484-0.525,1.057-0.939,1.717-1.242c0.66-0.303,1.39-0.453,2.191-0.453
		c0.885,0,1.661,0.162,2.328,0.484c0.667,0.324,1.222,0.76,1.665,1.307s0.775,1.184,1,1.906c0.225,0.723,0.337,1.484,0.337,2.285
		c0,0.113-0.003,0.229-0.01,0.348c-0.007,0.119-0.018,0.242-0.032,0.369h-8.174c0.14,0.914,0.502,1.611,1.085,2.096
		c0.583,0.484,1.289,0.727,2.117,0.727c0.632,0,1.18-0.111,1.643-0.336s0.92-0.555,1.37-0.99l1.496,1.326
		c-0.534,0.633-1.169,1.139-1.907,1.518S84.751,49.906,83.726,49.906z M86.254,43.313c-0.042-0.406-0.134-0.789-0.274-1.148
		c-0.141-0.357-0.33-0.666-0.569-0.926s-0.523-0.467-0.853-0.621c-0.33-0.154-0.706-0.232-1.127-0.232
		c-0.787,0-1.437,0.27-1.949,0.811c-0.513,0.541-0.825,1.246-0.938,2.117H86.254z"/>
	<path fill="#464547" d="M94.68,49.844c-0.463,0-0.894-0.057-1.29-0.168c-0.396-0.113-0.74-0.295-1.03-0.549
		c-0.291-0.252-0.513-0.586-0.669-1s-0.233-0.93-0.233-1.549v-5.855h-1.412v-2.191h1.412v-3.055h2.57v3.055h2.991v2.191h-2.991
		v5.455c0,0.492,0.119,0.846,0.358,1.064c0.239,0.217,0.576,0.326,1.011,0.326c0.548,0,1.075-0.127,1.58-0.379v2.086
		c-0.323,0.182-0.667,0.322-1.032,0.42C95.579,49.795,95.157,49.844,94.68,49.844z"/>
	<path fill="#464547" d="M105.086,34.402h2.76v2.422h-2.76V34.402z M105.191,38.531h2.57v11.123h-2.57V38.531z"/>
	<path fill="#464547" d="M114.397,49.844c-0.463,0-0.894-0.057-1.29-0.168c-0.396-0.113-0.74-0.295-1.03-0.549
		c-0.291-0.252-0.513-0.586-0.669-1s-0.233-0.93-0.233-1.549v-5.855h-1.412v-2.191h1.412v-3.055h2.57v3.055h2.991v2.191h-2.991
		v5.455c0,0.492,0.119,0.846,0.358,1.064c0.239,0.217,0.576,0.326,1.011,0.326c0.548,0,1.075-0.127,1.58-0.379v2.086
		c-0.323,0.182-0.667,0.322-1.032,0.42C115.296,49.795,114.875,49.844,114.397,49.844z"/>
	<path fill="#464547" d="M129.354,49.885c-0.66,0-1.299-0.125-1.917-0.379c-0.618-0.252-1.166-0.625-1.643-1.115
		c-0.478-0.492-0.864-1.096-1.159-1.813s-0.442-1.537-0.442-2.465V44.07c0-0.926,0.144-1.748,0.431-2.463
		c0.287-0.717,0.669-1.32,1.146-1.813s1.026-0.863,1.65-1.117c0.624-0.252,1.264-0.379,1.923-0.379c0.911,0,1.667,0.197,2.27,0.59
		c0.603,0.395,1.107,0.85,1.514,1.369v-5.982h2.57v15.379h-2.57l0.021-1.854c-0.407,0.576-0.917,1.066-1.527,1.475
		C131.007,49.682,130.252,49.885,129.354,49.885z M129.954,47.674c0.42,0,0.826-0.084,1.218-0.254
		c0.392-0.168,0.735-0.41,1.029-0.727c0.294-0.314,0.528-0.691,0.703-1.127c0.175-0.436,0.263-0.92,0.263-1.453V44.07
		c0-0.533-0.087-1.021-0.263-1.463c-0.175-0.443-0.409-0.818-0.703-1.127s-0.637-0.549-1.029-0.717
		c-0.392-0.168-0.798-0.252-1.218-0.252c-0.434,0-0.843,0.08-1.229,0.242c-0.385,0.16-0.725,0.396-1.019,0.705
		s-0.525,0.686-0.693,1.127c-0.168,0.443-0.251,0.938-0.251,1.484v0.043c0,0.533,0.083,1.021,0.251,1.465
		c0.168,0.441,0.399,0.818,0.693,1.127s0.633,0.547,1.019,0.715C129.111,47.59,129.52,47.674,129.954,47.674z"/>
	<path fill="#464547" d="M143.742,49.906c-0.843,0-1.626-0.15-2.349-0.453c-0.723-0.301-1.348-0.713-1.875-1.232
		c-0.527-0.52-0.938-1.129-1.232-1.832s-0.442-1.447-0.442-2.232v-0.043c0-0.801,0.15-1.551,0.453-2.254s0.716-1.316,1.243-1.844
		c0.526-0.525,1.151-0.943,1.875-1.254c0.723-0.309,1.513-0.463,2.37-0.463s1.646,0.15,2.37,0.453
		c0.723,0.303,1.348,0.717,1.875,1.242c0.526,0.527,0.938,1.139,1.232,1.834s0.442,1.443,0.442,2.242v0.043
		c0,0.787-0.151,1.531-0.453,2.232c-0.302,0.703-0.716,1.316-1.243,1.844c-0.527,0.527-1.156,0.945-1.886,1.254
		C145.392,49.752,144.599,49.906,143.742,49.906z M143.784,47.695c0.516,0,0.98-0.096,1.392-0.285s0.764-0.445,1.057-0.77
		c0.293-0.322,0.517-0.697,0.67-1.127c0.153-0.428,0.23-0.881,0.23-1.357v-0.043c0-0.492-0.084-0.955-0.251-1.391
		c-0.167-0.436-0.401-0.814-0.702-1.137c-0.3-0.324-0.656-0.58-1.068-0.77c-0.412-0.189-0.869-0.285-1.371-0.285
		c-0.503,0-0.96,0.096-1.372,0.285c-0.412,0.189-0.765,0.443-1.058,0.758c-0.293,0.316-0.516,0.693-0.67,1.127
		c-0.153,0.436-0.23,0.893-0.23,1.369v0.043c0,0.492,0.084,0.951,0.251,1.381c0.167,0.428,0.401,0.807,0.701,1.137
		c0.3,0.33,0.656,0.59,1.067,0.779C142.846,47.6,143.296,47.695,143.784,47.695z"/>
	<path fill="#464547" d="M151.874,38.531h2.57v1.744c0.182-0.27,0.382-0.52,0.599-0.754c0.217-0.234,0.469-0.443,0.756-0.627
		s0.603-0.33,0.945-0.436c0.343-0.107,0.732-0.16,1.166-0.16c1.26,0,2.234,0.387,2.92,1.158c0.686,0.773,1.029,1.813,1.029,3.119
		v7.078h-2.57V43.35c0-0.869-0.205-1.539-0.616-2.008c-0.411-0.469-0.992-0.705-1.744-0.705c-0.738,0-1.336,0.242-1.796,0.727
		c-0.459,0.482-0.689,1.158-0.689,2.027v6.264h-2.57V38.531z"/>
	<path fill="#464547" d="M169.611,49.906c-0.801,0-1.548-0.141-2.244-0.422c-0.695-0.279-1.299-0.674-1.812-1.18
		c-0.513-0.504-0.917-1.111-1.211-1.822c-0.295-0.709-0.442-1.49-0.442-2.348v-0.043c0-0.801,0.133-1.551,0.4-2.254
		c0.267-0.701,0.643-1.316,1.127-1.844c0.484-0.525,1.057-0.939,1.717-1.242c0.66-0.303,1.39-0.453,2.191-0.453
		c0.885,0,1.661,0.162,2.328,0.484c0.667,0.324,1.222,0.76,1.665,1.307s0.775,1.184,1,1.906c0.225,0.723,0.337,1.484,0.337,2.285
		c0,0.113-0.003,0.229-0.01,0.348c-0.007,0.119-0.018,0.242-0.032,0.369h-8.174c0.14,0.914,0.502,1.611,1.085,2.096
		c0.583,0.484,1.289,0.727,2.117,0.727c0.632,0,1.18-0.111,1.643-0.336s0.92-0.555,1.37-0.99l1.496,1.326
		c-0.534,0.633-1.169,1.139-1.907,1.518S170.636,49.906,169.611,49.906z M172.139,43.313c-0.042-0.406-0.134-0.789-0.274-1.148
		c-0.141-0.357-0.33-0.666-0.569-0.926s-0.523-0.467-0.853-0.621c-0.33-0.154-0.706-0.232-1.127-0.232
		c-0.787,0-1.437,0.27-1.949,0.811c-0.513,0.541-0.825,1.246-0.938,2.117H172.139z"/>
	<path fill="#464547" d="M188.002,49.906c-0.844,0-1.627-0.15-2.35-0.453c-0.723-0.301-1.348-0.713-1.875-1.232
		s-0.938-1.129-1.232-1.832s-0.442-1.447-0.442-2.232v-0.043c0-0.801,0.15-1.551,0.453-2.254s0.716-1.316,1.243-1.844
		c0.526-0.525,1.151-0.943,1.875-1.254c0.723-0.309,1.514-0.463,2.369-0.463c0.857,0,1.646,0.15,2.371,0.453
		c0.723,0.303,1.348,0.717,1.875,1.242c0.525,0.527,0.938,1.139,1.232,1.834s0.441,1.443,0.441,2.242v0.043
		c0,0.787-0.15,1.531-0.453,2.232c-0.302,0.703-0.716,1.316-1.242,1.844c-0.527,0.527-1.156,0.945-1.886,1.254
		C189.651,49.752,188.857,49.906,188.002,49.906z M188.043,47.695c0.517,0,0.98-0.096,1.393-0.285s0.764-0.445,1.057-0.77
		c0.293-0.322,0.518-0.697,0.67-1.127c0.154-0.428,0.23-0.881,0.23-1.357v-0.043c0-0.492-0.084-0.955-0.25-1.391
		c-0.168-0.436-0.402-0.814-0.702-1.137c-0.3-0.324-0.655-0.58-1.067-0.77s-0.869-0.285-1.371-0.285
		c-0.503,0-0.96,0.096-1.371,0.285c-0.412,0.189-0.766,0.443-1.059,0.758c-0.293,0.316-0.516,0.693-0.67,1.127
		c-0.152,0.436-0.229,0.893-0.229,1.369v0.043c0,0.492,0.084,0.951,0.251,1.381c0.168,0.428,0.401,0.807,0.701,1.137
		c0.301,0.33,0.656,0.59,1.068,0.779S187.555,47.695,188.043,47.695z"/>
	<path fill="#464547" d="M196.133,38.531h2.57v1.744c0.182-0.27,0.381-0.52,0.599-0.754c0.217-0.234,0.469-0.443,0.756-0.627
		s0.603-0.33,0.945-0.436c0.343-0.107,0.731-0.16,1.166-0.16c1.261,0,2.233,0.387,2.92,1.158c0.687,0.773,1.029,1.813,1.029,3.119
		v7.078h-2.57V43.35c0-0.869-0.205-1.539-0.616-2.008c-0.41-0.469-0.992-0.705-1.744-0.705c-0.737,0-1.336,0.242-1.795,0.727
		c-0.46,0.482-0.689,1.158-0.689,2.027v6.264h-2.57V38.531z"/>
	<path fill="#464547" d="M218.42,49.844c-0.463,0-0.893-0.057-1.289-0.168c-0.396-0.113-0.74-0.295-1.031-0.549
		c-0.29-0.252-0.513-0.586-0.668-1c-0.156-0.414-0.234-0.93-0.234-1.549v-5.855h-1.411v-2.191h1.411v-3.055h2.57v3.055h2.991v2.191
		h-2.991v5.455c0,0.492,0.119,0.846,0.357,1.064c0.239,0.217,0.576,0.326,1.012,0.326c0.548,0,1.074-0.127,1.58-0.379v2.086
		c-0.323,0.182-0.667,0.322-1.032,0.42C219.319,49.795,218.898,49.844,218.42,49.844z"/>
	<path fill="#464547" d="M222.929,34.402h2.76v2.422h-2.76V34.402z M223.034,38.531h2.569v11.123h-2.569V38.531z"/>
	<path fill="#464547" d="M228.49,38.531h2.57v1.703c0.182-0.256,0.377-0.496,0.588-0.723c0.21-0.227,0.451-0.434,0.725-0.617
		c0.272-0.184,0.58-0.33,0.924-0.436c0.343-0.107,0.725-0.16,1.145-0.16c0.798,0,1.473,0.182,2.026,0.543
		c0.553,0.361,0.976,0.84,1.271,1.434c0.451-0.594,0.982-1.072,1.595-1.434s1.341-0.543,2.187-0.543
		c1.225,0,2.183,0.369,2.873,1.105c0.689,0.738,1.035,1.789,1.035,3.15v7.1h-2.57V43.35c0-0.883-0.195-1.557-0.588-2.02
		c-0.391-0.461-0.943-0.693-1.656-0.693c-0.699,0-1.269,0.236-1.709,0.705s-0.66,1.152-0.66,2.049v6.264h-2.57v-6.326
		c0-0.869-0.195-1.535-0.588-1.998c-0.391-0.461-0.943-0.693-1.656-0.693s-1.286,0.246-1.719,0.736
		c-0.434,0.49-0.65,1.17-0.65,2.039v6.242h-2.57V38.531z"/>
	<path fill="#464547" d="M253.18,49.906c-0.801,0-1.549-0.141-2.244-0.422c-0.695-0.279-1.299-0.674-1.813-1.18
		c-0.512-0.504-0.916-1.111-1.211-1.822c-0.295-0.709-0.441-1.49-0.441-2.348v-0.043c0-0.801,0.133-1.551,0.4-2.254
		c0.266-0.701,0.643-1.316,1.127-1.844c0.484-0.525,1.057-0.939,1.717-1.242s1.391-0.453,2.189-0.453
		c0.885,0,1.662,0.162,2.328,0.484c0.668,0.324,1.223,0.76,1.664,1.307c0.443,0.547,0.777,1.184,1.002,1.906
		s0.336,1.484,0.336,2.285c0,0.113-0.004,0.229-0.01,0.348c-0.008,0.119-0.018,0.242-0.031,0.369h-8.174
		c0.141,0.914,0.502,1.611,1.084,2.096c0.584,0.484,1.289,0.727,2.117,0.727c0.633,0,1.18-0.111,1.645-0.336
		c0.463-0.225,0.918-0.555,1.369-0.99l1.494,1.326c-0.533,0.633-1.168,1.139-1.906,1.518
		C255.086,49.717,254.203,49.906,253.18,49.906z M255.707,43.313c-0.043-0.406-0.133-0.789-0.273-1.148
		c-0.141-0.357-0.33-0.666-0.568-0.926c-0.24-0.26-0.523-0.467-0.854-0.621s-0.707-0.232-1.127-0.232
		c-0.787,0-1.438,0.27-1.949,0.811c-0.514,0.541-0.826,1.246-0.938,2.117H255.707z"/>
</g>
<rect x="0.744" y="-0.002" fill="none" width="365.256" height="49.949"/>
<rect y="-0.002" fill="none" width="366" height="49.949"/>
</svg>
